<?xml version="1.0" standalone="no"?><!DOCTYPE svg PUBLIC "-//W3C//DTD SVG 1.1//EN" "http://www.w3.org/Graphics/SVG/1.1/DTD/svg11.dtd"><svg t="1775810426651" class="icon" viewBox="0 0 1024 1024" version="1.1" xmlns="http://www.w3.org/2000/svg" p-id="5199" width="256" height="256" xmlns:xlink="http://www.w3.org/1999/xlink"><path d="M899.413333 675.84c6.826667 13.653333 3.413333 29.013333-8.533333 37.546667l-3.413333 3.413333-325.973334 187.733333c-37.546667 22.186667-81.92 23.893333-119.466666 5.12l-8.533334-5.12L112.64 725.333333c-13.653333-8.533333-18.773333-25.6-11.946667-40.96 6.826667-13.653333 22.186667-18.773333 35.84-13.653333l5.12 1.706667 322.56 179.2c18.773333 10.24 42.666667 11.946667 63.146667 1.706666l6.826667-3.413333 325.973333-187.733333c13.653333-6.826667 30.72-1.706667 39.253333 13.653333z m3.413334-179.2c6.826667 13.653333 3.413333 29.013333-8.533334 37.546667l-3.413333 3.413333-325.973333 187.733333c-37.546667 22.186667-81.92 23.893333-119.466667 5.12l-8.533333-3.413333L114.346667 546.133333c-13.653333-8.533333-18.773333-25.6-11.946667-40.96 6.826667-13.653333 22.186667-18.773333 35.84-13.653333l5.12 1.706667 322.56 179.2c18.773333 10.24 42.666667 11.946667 63.146667 1.706666l6.826666-3.413333 325.973334-187.733333c13.653333-6.826667 32.426667-1.706667 40.96 13.653333zM554.666667 131.413333l322.56 179.2c15.36 8.533333 22.186667 29.013333 11.946666 44.373334-3.413333 5.12-6.826667 10.24-13.653333 11.946666l-325.973333 187.733334c-30.72 17.066667-68.266667 18.773333-98.986667 1.706666L129.706667 377.173333c-15.36-8.533333-20.48-29.013333-11.946667-44.373333 3.413333-5.12 6.826667-10.24 11.946667-13.653333l325.973333-187.733334c30.72-17.066667 68.266667-17.066667 98.986667 0z m-64.853334 51.2l-5.12 1.706667-285.013333 163.84 281.6 157.013333c10.24 5.12 23.893333 6.826667 34.133333 1.706667l5.12-1.706667L805.546667 341.333333l-281.6-157.013333c-10.24-6.826667-22.186667-6.826667-34.133334-1.706667z" p-id="5200"></path><path d="M911.36 689.493333c0 11.946667-5.12 22.186667-13.653333 30.72l-5.12 3.413334-325.973334 187.733333c-22.186667 10.24-46.08 17.066667-69.973333 17.066667-20.48 0-39.253333-3.413333-58.026667-11.946667l-8.533333-3.413333L107.52 732.16c-8.533333-5.12-15.36-13.653333-17.066667-22.186667-3.413333-10.24-1.706667-18.773333 3.413334-27.306666 8.533333-17.066667 29.013333-23.893333 46.08-17.066667l3.413333 1.706667 324.266667 177.493333c17.066667 10.24 37.546667 10.24 56.32 1.706667l6.826666-3.413334 325.973334-186.026666c8.533333-5.12 18.773333-6.826667 27.306666-3.413334 10.24 1.706667 17.066667 8.533333 22.186667 17.066667m-778.24 6.826667c-8.533333 0-15.36 5.12-20.48 11.946666-3.413333 5.12-3.413333 11.946667-1.706667 17.066667s5.12 10.24 10.24 13.653333l320.853334 179.2 8.533333 3.413334c35.84 17.066667 78.506667 15.36 112.64-5.12l325.973333-187.733334 3.413334-1.706666c8.533333-6.826667 10.24-18.773333 5.12-29.013334v-1.706666c-3.413333-5.12-8.533333-8.533333-13.653334-10.24s-11.946667 0-17.066666 1.706666l-325.973334 187.733334-6.826666 5.12c-22.186667 10.24-47.786667 8.533333-69.973334-3.413334L138.24 679.253333l-3.413333-1.706666h-6.826667z m781.653333-186.026667c8.533333 15.36 5.12 35.84-10.24 47.786667l-5.12 3.413333-327.68 187.733333c-20.48 11.946667-44.373333 18.773333-68.266666 18.773334-20.48 0-39.253333-3.413333-58.026667-11.946667l-8.533333-3.413333L110.933333 552.96c-17.066667-10.24-23.893333-32.426667-13.653333-51.2 8.533333-15.36 27.306667-22.186667 46.08-17.066667l5.12 1.706667L471.04 665.6c17.066667 10.24 37.546667 10.24 56.32 1.706667l6.826667-3.413334L860.16 477.866667c8.533333-5.12 18.773333-6.826667 27.306667-3.413334 5.12 1.706667 6.826667 1.706667 8.533333 3.413334M129.706667 498.346667c-8.533333 0-15.36 5.12-20.48 11.946666-6.826667 10.24-3.413333 23.893333 8.533333 30.72l322.56 179.2 8.533333 3.413334c35.84 17.066667 78.506667 15.36 112.64-5.12l325.973334-187.733334 3.413333-1.706666c8.533333-6.826667 10.24-18.773333 6.826667-27.306667v-1.706667c-3.413333-5.12-8.533333-8.533333-13.653334-10.24s-11.946667 0-17.066666 1.706667l-325.973334 187.733333-8.533333 3.413334c-22.186667 10.24-47.786667 8.533333-69.973333-3.413334L139.946667 500.053333l-3.413334-1.706666h-6.826666z m370.346666 78.506666c-17.066667 0-35.84-5.12-51.2-13.653333L126.293333 384c-10.24-5.12-15.36-13.653333-18.773333-23.893333s-1.706667-20.48 3.413333-30.72c3.413333-6.826667 8.533333-11.946667 15.36-15.36l325.973334-187.733334c32.426667-18.773333 73.386667-18.773333 105.813333-1.706666l322.56 179.2c18.773333 10.24 25.6 35.84 15.36 54.613333-3.413333 6.826667-8.533333 11.946667-15.36 15.36l-325.973333 187.733333c-17.066667 10.24-35.84 15.36-54.613334 15.36z m6.826667-450.56c-15.36 0-32.426667 3.413333-46.08 11.946667l-325.973333 187.733333c-3.413333 1.706667-6.826667 5.12-10.24 10.24-3.413333 5.12-5.12 11.946667-3.413334 18.773334s6.826667 11.946667 11.946667 15.36l322.56 179.2c29.013333 15.36 63.146667 15.36 90.453333-1.706667l325.973334-187.733333c3.413333-1.706667 6.826667-5.12 10.24-10.24 6.826667-11.946667 3.413333-29.013333-8.533334-35.84L551.253333 138.24c-13.653333-8.533333-29.013333-11.946667-44.373333-11.946667z m-5.12 389.12c-8.533333 0-15.36-1.706667-22.186667-5.12L187.733333 348.16l303.786667-172.373333c13.653333-5.12 27.306667-3.413333 39.253333 3.413333L822.613333 341.333333 525.653333 512h-5.12c-6.826667 3.413333-13.653333 3.413333-18.773333 3.413333z m-285.013333-168.96l269.653333 150.186667c8.533333 5.12 18.773333 5.12 29.013333 1.706667l5.12-1.706667 273.066667-157.013333-269.653333-150.186667c-8.533333-5.12-18.773333-5.12-29.013334-1.706667l-5.12 1.706667-273.066666 157.013333z" p-id="5201"></path></svg>