<?xml version="1.0" standalone="no"?><!DOCTYPE svg PUBLIC "-//W3C//DTD SVG 1.1//EN" "http://www.w3.org/Graphics/SVG/1.1/DTD/svg11.dtd"><svg t="1776159129861" class="icon" viewBox="0 0 1024 1024" version="1.1" xmlns="http://www.w3.org/2000/svg" p-id="5419" width="256" height="256" xmlns:xlink="http://www.w3.org/1999/xlink"><path d="M511.715713 1023.431427a511.715713 511.715713 0 1 1 511.715714-511.715714 511.715713 511.715713 0 0 1-511.715714 511.715714zM511.715713 56.857301a454.858412 454.858412 0 1 0 454.858412 454.858412 454.858412 454.858412 0 0 0-454.858412-454.858412z" fill="#0F3567" p-id="5420"></path><path d="M379.806774 322.3809h180.237646c103.480289 0 155.220433 43.780122 155.220433 131.908939s-52.308717 133.614659-156.357579 133.614659h-113.714603v170.571904H379.806774z m65.95447 56.857301v151.808995h108.597446A113.714603 113.714603 0 0 0 625.430316 511.715713a72.208773 72.208773 0 0 0 22.174348-56.857301A64.817324 64.817324 0 0 0 625.430316 398.00111a113.714603 113.714603 0 0 0-71.640199-18.194336z" fill="#0F3567" p-id="5421"></path></svg>